/vscmnt/brussel_pixiu_data/_data_brussel/112/vsc11236/PredSimResults/SUBJ04_gait1422_tracking/SUBJ04_gait1422_11433261.mot
version=1
nRows=6
nColumns=50
inDegrees=yes
endheader
                time	         pelvis_tilt	         pelvis_list	     pelvis_rotation	           pelvis_tx	           pelvis_ty	           pelvis_tz	       hip_flexion_r	     hip_adduction_r	      hip_rotation_r	        knee_angle_r	       ankle_angle_r	         mtp_angle_r	       hip_flexion_l	     hip_adduction_l	      hip_rotation_l	        knee_angle_l	       ankle_angle_l	         mtp_angle_l	    lumbar_extension	      lumbar_bending	     lumbar_rotation	 ercspn_r/activation	 intobl_r/activation	 extobl_r/activation	    abd_r/activation	    add_r/activation	hamstrings_r/activation	bifemsh_r/activation	glut_max_r/activation	iliopsoas_r/activation	rect_fem_r/activation	  vasti_r/activation	gastroc_r/activation	 soleus_r/activation	tib_ant_r/activation	 ercspn_l/activation	 intobl_l/activation	 extobl_l/activation	    abd_l/activation	    add_l/activation	hamstrings_l/activation	bifemsh_l/activation	glut_max_l/activation	iliopsoas_l/activation	rect_fem_l/activation	  vasti_l/activation	gastroc_l/activation	 soleus_l/activation	tib_ant_l/activation	
          1.92045781	         -0.15822480	         -1.90389213	         -3.97059060	          1.80144645	          0.87723254	         -0.02343633	        -12.28996093	          4.75292452	        -12.39279982	        -12.60382936	         16.85226696	         20.43110750	         29.02091404	         -4.71865208	        -19.62718162	        -12.16935660	         -2.67208906	          0.23141162	         -8.71437611	          1.22634761	          7.58704063	          0.01226582	          0.02630742	          0.01423028	          0.17437554	          0.01000221	          0.01000263	          0.08157632	          0.01000154	          0.32633189	          0.42021076	          0.03088696	          0.43756260	          0.25165914	          0.03934584	          0.02387049	          0.06171114	          0.07565764	          0.03870086	          0.03486317	          0.03693200	          0.23357870	          0.02659952	          0.06822471	          0.01704017	          0.01966925	          0.01472303	          0.01472230	          0.10992644	
          1.93326087	         -0.21073455	         -1.82782540	         -4.16745530	          1.81493158	          0.87616735	         -0.02486616	        -12.73450706	          4.33471521	        -12.15587817	        -13.31589379	         16.24367186	         22.05898116	         28.52605680	         -4.56559018	        -19.04755011	        -12.67239191	         -3.65626765	          0.16865963	         -8.62084601	          0.98835393	          7.54776558	          0.01010976	          0.02168247	          0.02596288	          0.16015528	          0.01000081	          0.01000611	          0.06723133	          0.01000591	          0.30049698	          0.34631468	          0.02868864	          0.44872251	          0.37534064	          0.03242654	          0.01967282	          0.05096765	          0.06235417	          0.03189513	          0.03133142	          0.03043739	          0.26576479	          0.02192211	          0.05622785	          0.01404376	          0.01621034	          0.01213409	          0.01213377	          0.18311263	
          1.94606392	         -0.25911127	         -1.75595265	         -4.34034465	          1.82880641	          0.87530939	         -0.02652540	        -13.17927787	          3.89770617	        -11.85848303	        -14.04769856	         15.43171701	         23.83500824	         27.93591307	         -4.37666791	        -18.59207447	        -13.32845904	         -3.22251171	          0.14737631	         -8.50794587	          0.77115818	          7.47475083	          0.01213436	          0.01787119	          0.10280431	          0.14104062	          0.01000125	          0.01000093	          0.05540890	          0.01000064	          0.24765269	          0.28541276	          0.02837991	          0.40422183	          0.31133220	          0.02672408	          0.01621333	          0.19116762	          0.12536635	          0.02628615	          0.02582174	          0.02508478	          0.21903897	          0.01806701	          0.21621273	          0.12324301	          0.01335972	          0.01000028	          0.01000005	          0.20804010	
          1.95886697	         -0.30524312	         -1.49089662	         -4.43395515	          1.84261901	          0.87476844	         -0.02841411	        -13.52397619	          3.24987997	        -11.59372282	        -14.92920616	         14.59005863	         25.62417818	         27.52438843	         -3.98638542	        -18.13660808	        -14.19141966	         -3.14033970	          0.17718040	         -8.42935578	          0.32832324	          7.32472242	          0.01000074	          0.01472871	          0.08472568	          0.11623867	          0.01000051	          0.01002319	          0.04566542	          0.01002690	          0.20410156	          0.23522080	          0.03343620	          0.37447662	          0.29249657	          0.02202445	          0.01336227	          0.17481473	          0.10332141	          0.02166363	          0.02128211	          0.02067355	          0.18052019	          0.01489003	          0.17819040	          0.10157002	          0.01786541	          0.01384196	          0.03432413	          0.17715584	
          1.97167002	         -0.34555063	         -0.96993356	         -4.41871077	          1.85619407	          0.87458781	         -0.03051339	        -13.73748238	          2.33762601	        -11.37138421	        -16.01033341	         13.75704633	         27.37142039	         27.39752542	         -3.34775728	        -17.56726618	        -15.33255914	         -3.77252884	          0.18111157	         -8.40994022	         -0.42322736	          7.07495397	          0.01000094	          0.01213876	          0.06982606	          0.09579721	          0.01000040	          0.01000244	          0.03763531	          0.01000110	          0.20159797	          0.19385548	          0.03176684	          0.33839150	          0.26243988	          0.01815145	          0.01101534	          0.14407240	          0.08515172	          0.03136137	          0.01754118	          0.05793447	          0.20541508	          0.01228085	          0.14685428	          0.08370818	          0.01472371	          0.02962953	          0.02828820	          0.15561760	
          1.98447307	         -0.36756908	         -0.33743312	         -4.30410085	          1.86961919	          0.87475845	         -0.03278189	        -13.82133685	          1.30721460	        -11.15011540	        -17.34106777	         12.84797084	         29.09481694	         27.51212009	         -2.61079095	        -16.84965912	        -16.98550600	         -3.89791038	          0.24454529	         -8.45566434	         -1.31858096	          6.74953666	          0.07984321	          0.01000490	          0.05754664	          0.07895051	          0.01000105	          0.01000064	          0.03101726	          0.01160283	          0.22565389	          0.15976445	          0.02630307	          0.31173632	          0.24498296	          0.01495945	          0.07046099	          0.11873620	          0.07017729	          0.10534235	          0.07231915	          0.07295437	          0.20349753	          0.05289497	          0.12102887	          0.06898750	          0.01213450	          0.02832562	          0.02331395	          0.12825755	
